<?xml version="1.0" standalone="no"?><!DOCTYPE svg PUBLIC "-//W3C//DTD SVG 1.1//EN" "http://www.w3.org/Graphics/SVG/1.1/DTD/svg11.dtd"><svg t="1778760825146" class="icon" viewBox="0 0 1024 1024" version="1.1" xmlns="http://www.w3.org/2000/svg" p-id="2657" xmlns:xlink="http://www.w3.org/1999/xlink" width="32" height="32"><path d="M516.32128 829.6448c-44.52864 0-90.6752-14.70464-136.0896-43.6992-155.30496-99.15904-128.09728-347.4176-126.86336-357.9392a15.36512 15.36512 0 0 1 30.5152 3.57376c-0.27648 2.38592-26.1376 239.70816 112.88064 328.47872 59.25376 37.83168 116.64384 48.2304 170.5984 30.88896 67.7888-21.79072 112.76288-81.8176 130.68288-126.61248 34.24768-85.63712 31.76448-216.4736 31.73376-217.78944a15.36 15.36 0 0 1 15.01696-15.69792c8.55552-0.04608 15.50848 6.53824 15.6928 15.01696 0.12288 5.61152 2.63168 138.48064-33.92512 229.87776-20.38784 50.97472-71.8592 119.39328-149.80608 144.44544a196.53632 196.53632 0 0 1-60.43648 9.45664z" fill="#2E0C08" p-id="2658"></path><path d="M248.7296 578.45248c-40.28416 0-73.05728-32.768-73.05728-73.05728s32.77312-73.0624 73.05728-73.0624a15.36 15.36 0 1 1 0 30.72c-23.3472 0-42.33728 18.99008-42.33728 42.3424 0 23.3472 18.99008 42.33728 42.33728 42.33728a15.36 15.36 0 1 1 0 30.72zM758.07232 578.45248a15.36 15.36 0 1 1 0-30.72c23.3472 0 42.3424-18.99008 42.3424-42.33728 0-23.3472-18.9952-42.3424-42.3424-42.3424a15.36 15.36 0 1 1 0-30.72c40.28416 0 73.0624 32.77312 73.0624 73.0624s-32.77824 73.05728-73.0624 73.05728z" fill="#2E0C08" p-id="2659"></path><path d="M754.0736 455.10656a15.29856 15.29856 0 0 1-8.36608-2.48832c-122.40896-79.66208-240.86528-78.7712-318.68928-64.00512-86.7072 16.4608-144.55808 52.65408-152.71936 59.16672a15.36 15.36 0 0 1-26.2144-14.87872c4.80256-14.42304 62.75584-41.72288 100.98176-55.08096 82.14016-28.6976 245.06368-60.49792 413.40416 49.0496a15.36 15.36 0 0 1-8.3968 28.2368z" fill="#2E0C08" p-id="2660"></path><path d="M258.67776 451.1232a15.32928 15.32928 0 0 1-11.12064-4.7616c-13.72672-14.39744-82.51392-86.62528-88.70912-94.89408a15.36 15.36 0 0 1 24.56064-18.45248c4.64896 6.01088 55.43936 59.6992 86.38464 92.14976a15.36512 15.36512 0 0 1-11.11552 25.9584zM754.08384 451.1232a15.36512 15.36512 0 0 1-11.41248-25.63584c27.51488-30.57152 72.67328-81.08544 76.7232-86.48192a15.36 15.36 0 0 1 24.57088 18.43712c-6.07744 8.09472-66.42688 75.21792-78.464 88.59136a15.2832 15.2832 0 0 1-11.4176 5.08928z" fill="#2E0C08" p-id="2661" data-spm-anchor-id="a313x.search_index.0.i1.7d2f3a81qnZUik" class="selected"></path><path d="M830.70464 356.61824a15.36 15.36 0 0 1-13.70624-8.40704c-0.24576-0.47616-25.0624-48.2816-82.66752-91.63264-75.53024-56.84224-169.50784-80.14848-279.38816-69.33504a15.32416 15.32416 0 0 1-5.20192 1.42848c-193.9712 17.90976-260.01408 152.4224-262.72768 158.14144a15.3856 15.3856 0 0 1-20.43904 7.31648 15.34464 15.34464 0 0 1-7.35744-20.39808c2.95424-6.29248 74.03008-152.87808 280.95488-174.976 1.49504-0.70144 3.12832-1.17248 4.84352-1.36192 151.25504-16.64512 251.56608 31.93344 309.10976 75.63264 62.71488 47.6416 89.18528 99.1232 90.28096 101.29408a15.36 15.36 0 0 1-13.70112 22.2976z" fill="#2E0C08" p-id="2662"></path><path d="M551.14752 180.53632a15.36 15.36 0 0 1-15.36-15.36c0-18.95424-15.42656-34.37568-34.38592-34.37568a34.41664 34.41664 0 0 0-34.37568 34.37568 15.36 15.36 0 1 1-30.72 0c0-35.89632 29.20448-65.09568 65.09568-65.09568 35.90144 0 65.10592 29.20448 65.10592 65.09568a15.36 15.36 0 0 1-15.36 15.36z" fill="#2E0C08" p-id="2663"></path><path d="M608.8448 714.8032a16.41472 16.41472 0 0 1-16.41472 16.41472H418.34496a16.41472 16.41472 0 0 1-16.41472-16.41472V313.89696a16.41472 16.41472 0 0 1 16.41472-16.41472h174.08512a16.41472 16.41472 0 0 1 16.41472 16.41472v400.90624z" fill="#FFC41F" p-id="2664"></path><path d="M592.43008 741.45792H418.34496a26.68032 26.68032 0 0 1-26.65472-26.65472V313.89696a26.68032 26.68032 0 0 1 26.65472-26.65472h174.08512a26.68032 26.68032 0 0 1 26.65472 26.65472v400.90624a26.68032 26.68032 0 0 1-26.65472 26.65472zM418.34496 307.72224c-3.4048 0-6.17472 2.76992-6.17472 6.17472v400.90624c0 3.4048 2.76992 6.17472 6.17472 6.17472h174.08512c3.4048 0 6.17472-2.76992 6.17472-6.17472V313.89696c0-3.4048-2.76992-6.17472-6.17472-6.17472H418.34496z" fill="" p-id="2665"></path><path d="M499.41504 587.264c-2.03264 0-4.09088-0.60416-5.88288-1.86368-1.2288-0.86528-30.208-21.60128-37.9392-56.91904C437.87264 447.488 489.4208 410.93632 491.6224 409.4208a10.24 10.24 0 0 1 11.65312 16.83968c-1.77664 1.24928-42.34752 30.79168-27.67872 97.83808 6.04672 27.62752 29.48096 44.38528 29.71648 44.54912a10.24 10.24 0 0 1-5.89824 18.61632z" fill="#2E0C08" p-id="2666"></path><path d="M503.97184 588.26752a10.24 10.24 0 0 1-5.90848-18.61632c0.21504-0.14848 23.7312-17.18272 29.7216-44.54912 14.81216-67.70176-27.20768-97.52064-27.63264-97.81248a10.24 10.24 0 0 1 11.60704-16.8704c2.2016 1.51552 53.74976 38.06208 36.03456 119.06048-7.73632 35.31264-36.7104 56.05376-37.9392 56.91904-1.792 1.25952-3.85024 1.8688-5.88288 1.8688z" fill="#2E0C08" p-id="2667"></path><path d="M502.40512 536.5248c-19.35872 0-35.11296-15.74912-35.11296-35.10272 0-19.35872 15.75424-35.11296 35.11296-35.11296s35.10784 15.75424 35.10784 35.11296a35.1488 35.1488 0 0 1-35.10784 35.10272z m0-49.73568a14.64832 14.64832 0 0 0-14.63296 14.63296c0 8.064 6.56384 14.62272 14.63296 14.62272s14.62784-6.55872 14.62784-14.62272a14.6432 14.6432 0 0 0-14.62784-14.63296zM461.62432 938.42944c-0.78336 0-1.57696-0.09216-2.37056-0.27648-2.7136-0.64512-66.87744-15.9744-99.21024-32.13824-67.76832-33.88928-87.2704-97.08544-87.424-97.69984-0.93696-3.75296-2.3552-9.4208 33.42848-88.76544a10.24512 10.24512 0 0 1 18.67264 8.4224c-14.22336 31.53408-29.41952 67.59936-31.744 76.75392 3.24096 8.69888 23.20384 56.45312 76.23168 82.9696 23.35232 11.6736 66.85184 23.45472 85.69344 28.26752l32.81408-98.45248a10.24 10.24 0 0 1 19.4304 6.4768l-35.80928 107.43808a10.25024 10.25024 0 0 1-9.71264 7.00416z" fill="#2E0C08" p-id="2668"></path><path d="M536.17664 938.42944a10.24 10.24 0 0 1-9.70752-6.99904l-35.80928-107.43808a10.24 10.24 0 0 1 19.4304-6.4768l32.81408 98.45248c18.8416-4.8128 62.34624-16.59392 85.69344-28.26752 53.02784-26.51648 72.9856-74.25536 76.23168-82.97472-2.32448-9.14944-17.51552-45.2096-31.73888-76.7488a10.24512 10.24512 0 0 1 18.67264-8.4224c35.78368 79.34464 34.36544 85.01248 33.42336 88.77056-0.1536 0.60416-19.63008 63.7952-87.424 97.69472-32.32768 16.16384-96.49664 31.49312-99.21024 32.13824a10.54208 10.54208 0 0 1-2.37568 0.27136z" fill="#2E0C08" p-id="2669"></path></svg>