<?xml version="1.0" standalone="no"?><!DOCTYPE svg PUBLIC "-//W3C//DTD SVG 1.1//EN" "http://www.w3.org/Graphics/SVG/1.1/DTD/svg11.dtd"><svg t="1778761484774" class="icon" viewBox="0 0 1024 1024" version="1.1" xmlns="http://www.w3.org/2000/svg" p-id="9807" xmlns:xlink="http://www.w3.org/1999/xlink" width="32" height="32"><path d="M512 234.666667c-172.8 0-322.133333 102.4-388.266667 251.733333-6.4 17.066667-6.4 36.266667 0 51.2C189.866667 686.933333 339.2 789.333333 512 789.333333s322.133333-102.4 388.266667-251.733333c6.4-17.066667 6.4-36.266667 0-51.2C834.133333 337.066667 684.8 234.666667 512 234.666667z" fill="#2953FF" p-id="9808"></path><path d="M512 512m-170.666667 0a170.666667 170.666667 0 1 0 341.333334 0 170.666667 170.666667 0 1 0-341.333334 0Z" fill="#FF354A" p-id="9809"></path><path d="M512 512m-85.333333 0a85.333333 85.333333 0 1 0 170.666666 0 85.333333 85.333333 0 1 0-170.666666 0Z" fill="#FCCA1E" p-id="9810"></path></svg>