<?xml version="1.0" standalone="no"?><!DOCTYPE svg PUBLIC "-//W3C//DTD SVG 1.1//EN" "http://www.w3.org/Graphics/SVG/1.1/DTD/svg11.dtd"><svg t="1778740322827" class="icon" viewBox="0 0 1024 1024" version="1.1" xmlns="http://www.w3.org/2000/svg" p-id="9153" xmlns:xlink="http://www.w3.org/1999/xlink" width="32" height="32"><path d="M344 203.2c60.8-8 89.6-56 123.2-99.2 8-11.2 12.8-22.4 20.8-35.2 19.2-32 28.8-32 51.2-1.6 6.4 9.6 4.8 17.6-8 19.2-3.2 0-4.8-1.6-8-3.2-4.8-4.8-9.6-8-14.4 0-4.8 9.6-11.2 19.2-16 28.8-19.2 40-44.8 73.6-86.4 96-14.4 4.8-30.4 9.6-46.4 8-4.8 0-9.6-1.6-14.4-4.8-3.2-1.6-4.8-4.8-1.6-8z" fill="#1afa29" p-id="9154"></path><path d="M712 947.2c-8 3.2-14.4 8-24 6.4-25.6 4.8-49.6 11.2-75.2 14.4-40-1.6-80 6.4-120 3.2-12.8-3.2-27.2-3.2-40-4.8-16 0-32 1.6-46.4-3.2-17.6-3.2-33.6-6.4-51.2-9.6-8-1.6-17.6-1.6-11.2-14.4 12.8-8 25.6-6.4 40-4.8 96 16 193.6 14.4 289.6-3.2 9.6-1.6 19.2-3.2 27.2-1.6 8 3.2 12.8 8 11.2 17.6z" fill="#1afa29" p-id="9155"></path><path d="M937.6 790.4c-30.4 49.6-64 97.6-123.2 120-4.8 1.6-9.6 3.2-14.4-1.6-4.8-6.4 1.6-11.2 3.2-16 6.4-8 14.4-14.4 24-19.2 16-9.6 30.4-19.2 41.6-35.2 9.6-11.2 19.2-20.8 25.6-32 11.2-11.2 16-28.8 33.6-32 3.2 0 6.4 1.6 8 3.2 4.8 4.8 4.8 9.6 1.6 12.8z" fill="#1afa29" p-id="9156"></path><path d="M78.4 804.8c-24-27.2-41.6-57.6-49.6-92.8-3.2-9.6-1.6-16 9.6-17.6 20.8 6.4 19.2 27.2 27.2 41.6 3.2 12.8 8 24 17.6 33.6 3.2 4.8 6.4 9.6 8 14.4 4.8 12.8 14.4 20.8 24 28.8 9.6 14.4 32 19.2 33.6 41.6-1.6 1.6-4.8 3.2-8 3.2-11.2-1.6-16-12.8-25.6-16-6.4-1.6-9.6-6.4-12.8-11.2-6.4-9.6-14.4-17.6-24-25.6z" fill="#1afa29" p-id="9157"></path><path d="M406.4 960h49.6c12.8 4.8 27.2 3.2 38.4 9.6 38.4 1.6 78.4-4.8 116.8-3.2 25.6-6.4 51.2-12.8 76.8-11.2-89.6 33.6-182.4 25.6-273.6 14.4-27.2-3.2-54.4-3.2-78.4-14.4 24-11.2 46.4 1.6 70.4 4.8z" fill="#1afa29" p-id="9158"></path><path d="M43.2 697.6c-9.6 0-12.8 6.4-12.8 14.4C8 651.2 4.8 590.4 11.2 526.4c12.8 9.6 8 25.6 12.8 38.4 4.8 17.6-1.6 36.8 8 54.4 4.8 25.6 22.4 49.6 11.2 78.4z" fill="#1afa29" p-id="9159"></path><path d="M35.2 425.6c8-25.6 22.4-49.6 41.6-68.8 3.2-1.6 8-3.2 11.2-1.6 3.2 1.6 4.8 3.2 4.8 6.4-1.6 11.2-11.2 19.2-16 28.8-8 14.4-16 30.4-20.8 46.4-17.6 24-19.2 54.4-28.8 83.2-4.8 4.8-6.4 14.4-14.4 4.8 0-14.4-3.2-28.8 1.6-43.2 1.6-4.8 1.6-11.2 6.4-16 11.2-11.2 9.6-27.2 14.4-40z" fill="#1afa29" p-id="9160"></path><path d="M268.8 934.4c-44.8-14.4-83.2-38.4-120-67.2 0-1.6 1.6-3.2 1.6-3.2 6.4-4.8 14.4 6.4 22.4-1.6 36.8 8 65.6 30.4 96 48-3.2 6.4-9.6 11.2 1.6 16 0 3.2 0 6.4-1.6 8z" fill="#1afa29" p-id="9161"></path><path d="M526.4 83.2c11.2 0 11.2-8 11.2-16 14.4 27.2 28.8 54.4 43.2 80 6.4 12.8 14.4 22.4 25.6 30.4 0 9.6-6.4 9.6-12.8 9.6-24-4.8-27.2-30.4-41.6-44.8-6.4-11.2-16-20.8-20.8-32-1.6-8-12.8-16-4.8-27.2z" fill="#1afa29" p-id="9162"></path><path d="M995.2 660.8c-6.4 30.4-14.4 60.8-32 86.4-14.4-8-6.4-20.8-8-32 0-12.8 3.2-27.2 8-38.4 1.6-3.2 3.2-4.8 4.8-8 11.2-12.8 12.8-27.2 9.6-43.2 0-8 3.2-16 12.8-19.2 4.8-1.6 9.6 0 12.8 4.8-3.2 16-6.4 33.6-8 49.6z" fill="#1afa29" p-id="9163"></path><path d="M268.8 934.4V928c1.6-4.8 4.8-8 9.6-9.6 11.2 0 20.8 1.6 32 1.6 12.8 3.2 30.4 0 33.6 19.2 19.2 14.4 44.8 4.8 62.4 19.2-24 3.2-46.4-11.2-70.4-4.8-24-1.6-46.4-6.4-67.2-19.2z" fill="#1afa29" p-id="9164"></path><path d="M217.6 246.4c16-14.4 36.8-19.2 57.6-24 9.6-4.8 20.8-4.8 30.4-8 6.4 1.6 12.8 3.2 14.4 9.6-25.6 20.8-56 28.8-86.4 33.6-8-1.6-12.8-4.8-16-11.2z" fill="#1afa29" p-id="9165"></path><path d="M712 947.2c-1.6-4.8-4.8-8-6.4-12.8 16-25.6 40-22.4 64-20.8 6.4 1.6 12.8 3.2 17.6 9.6-22.4 12.8-48 20.8-75.2 24z" fill="#1afa29" p-id="9166"></path><path d="M782.4 244.8c25.6 8 48 20.8 68.8 38.4-1.6 4.8-3.2 8-8 9.6-25.6-1.6-44.8-19.2-67.2-30.4-1.6-3.2-3.2-4.8-3.2-8 1.6-4.8 4.8-8 9.6-9.6z" fill="#1afa29" p-id="9167"></path><path d="M217.6 246.4c4.8 1.6 9.6 4.8 12.8 6.4-16 25.6-44.8 30.4-70.4 40-4.8-1.6-8-4.8-6.4-11.2 19.2-16 40-28.8 64-35.2z" fill="#1afa29" p-id="9168"></path><path d="M782.4 244.8c-3.2 3.2-4.8 6.4-8 8-20.8 6.4-38.4 0-51.2-17.6 0-3.2 0-6.4 3.2-9.6 4.8-1.6 9.6-1.6 14.4 0 14.4 3.2 28.8 9.6 41.6 19.2z" fill="#1afa29" p-id="9169"></path><path d="M593.6 184c4.8-1.6 8-3.2 12.8-6.4 17.6 8 38.4 8 51.2 24-3.2 4.8-6.4 6.4-11.2 6.4-20.8-3.2-46.4 8-52.8-24z" fill="#1afa29" p-id="9170"></path><path d="M980.8 441.6c9.6 12.8 14.4 27.2 12.8 43.2v12.8c-1.6 4.8-3.2 8-8 8-3.2 0-4.8-1.6-6.4-4.8-4.8-11.2-8-24-12.8-35.2-1.6-6.4-1.6-11.2 1.6-16 1.6-8 11.2 1.6 12.8-8z" fill="#1afa29" p-id="9171"></path><path d="M1000 609.6h-11.2c-3.2-3.2-4.8-8-4.8-12.8 4.8-16 0-32 8-48 14.4-9.6 9.6 6.4 14.4 11.2v36.8c-4.8 3.2-1.6 9.6-6.4 12.8z" fill="#1afa29" p-id="9172"></path><path d="M641.6 203.2c4.8 0 9.6 0 14.4-1.6 8 1.6 16 4.8 24 6.4 8 6.4 19.2 3.2 27.2 9.6 8 0 14.4 1.6 17.6 9.6v6.4c-32 3.2-62.4-1.6-83.2-30.4z" fill="#1afa29" p-id="9173"></path><path d="M961.6 715.2c3.2 11.2-6.4 22.4 0 32-1.6 4.8-4.8 8-6.4 12.8-6.4 6.4-9.6 14.4-19.2 19.2h-6.4c1.6-27.2 8-49.6 32-64z" fill="#1afa29" p-id="9174"></path><path d="M1006.4 560l-11.2-11.2c-19.2-17.6 0-38.4-6.4-56 1.6-1.6 3.2-4.8 4.8-6.4 9.6 22.4 14.4 46.4 12.8 73.6z" fill="#1afa29" p-id="9175"></path><path d="M787.2 923.2h-20.8c4.8-24 16-30.4 44.8-25.6-1.6 4.8-14.4 12.8 3.2 14.4-6.4 6.4-16 8-27.2 11.2z" fill="#1afa29" p-id="9176"></path><path d="M912 334.4c9.6 9.6 22.4 16 27.2 30.4-1.6 4.8-3.2 8-8 9.6-9.6 0-16-4.8-24-11.2-3.2-3.2-4.8-8-6.4-11.2 0-9.6 0-17.6 11.2-17.6z" fill="#1afa29" p-id="9177"></path><path d="M912 334.4c-6.4 4.8-4.8 11.2-4.8 19.2-20.8-4.8-28.8-19.2-30.4-38.4 1.6-3.2 3.2-6.4 6.4-8 11.2 6.4 22.4 14.4 28.8 27.2z" fill="#1afa29" p-id="9178"></path><path d="M956.8 390.4c9.6 11.2 17.6 22.4 19.2 38.4-4.8 3.2-1.6 12.8-8 14.4-16-8-20.8-20.8-20.8-36.8 0-8 3.2-12.8 9.6-16z" fill="#1afa29" p-id="9179"></path><path d="M92.8 358.4c-4.8 0-9.6 0-14.4-1.6 6.4-19.2 22.4-28.8 38.4-38.4 1.6 1.6 3.2 4.8 4.8 8-3.2 17.6-12.8 27.2-28.8 32z" fill="#1afa29" p-id="9180"></path><path d="M881.6 307.2c0 3.2-1.6 6.4-1.6 9.6-20.8 3.2-32-6.4-36.8-25.6 3.2-3.2 4.8-6.4 8-8 11.2 6.4 22.4 12.8 30.4 24z" fill="#1afa29" p-id="9181"></path><path d="M17.6 483.2c0 16 0 30.4 1.6 46.4 6.4 1.6 9.6 6.4 8 12.8-1.6 8-1.6 17.6-9.6 24-11.2-11.2-3.2-25.6-6.4-38.4-1.6-16-1.6-32 6.4-44.8z" fill="#1afa29" p-id="9182"></path><path d="M305.6 216c-9.6 4.8-20.8 6.4-32 6.4 22.4-11.2 44.8-19.2 68.8-17.6v6.4c-9.6 9.6-22.4 9.6-36.8 4.8z" fill="#1afa29" p-id="9183"></path><path d="M1000 609.6c1.6-4.8 4.8-8 6.4-12.8 3.2 22.4-3.2 43.2-11.2 64-4.8-17.6 0-35.2 4.8-51.2z" fill="#1afa29" p-id="9184"></path><path d="M155.2 283.2l8 8c-1.6 16-14.4 19.2-25.6 22.4-4.8 0-9.6-1.6-12.8-4.8 6.4-12.8 14.4-24 30.4-25.6z" fill="#1afa29" p-id="9185"></path><path d="M929.6 372.8c3.2-3.2 6.4-4.8 8-8 6.4 4.8 11.2 11.2 11.2 19.2 0 17.6-9.6 6.4-16 6.4-3.2-4.8-6.4-11.2-3.2-17.6z" fill="#1afa29" p-id="9186"></path><path d="M116.8 841.6c11.2-3.2 17.6 8 25.6 12.8 3.2 3.2 9.6 4.8 8 11.2-1.6 0-1.6 1.6-3.2 1.6-12.8-4.8-20.8-17.6-30.4-25.6zM78.4 804.8c12.8 4.8 22.4 12.8 25.6 25.6-11.2-6.4-20.8-14.4-25.6-25.6z" fill="#1afa29" p-id="9187"></path><path d="M35.2 425.6c0 14.4 0 28.8-14.4 38.4 3.2-12.8 6.4-25.6 14.4-38.4z" fill="#1afa29" p-id="9188"></path><path d="M124.8 308.8h12.8c3.2 16-3.2 22.4-19.2 20.8 0-3.2-1.6-6.4-1.6-9.6 3.2-3.2 6.4-6.4 8-11.2z" fill="#1afa29" p-id="9189"></path><path d="M937.6 777.6c4.8-8 9.6-14.4 19.2-19.2-3.2 12.8-8 24-19.2 30.4v-11.2z" fill="#1afa29" p-id="9190"></path><path d="M937.6 384c4.8 1.6 9.6 6.4 12.8-1.6 1.6 3.2 3.2 4.8 6.4 8 0 6.4-1.6 11.2-8 12.8-12.8-1.6-17.6-6.4-11.2-19.2z" fill="#1afa29" p-id="9191"></path><path d="M968 441.6c1.6-4.8 1.6-11.2 8-14.4l4.8 14.4c-1.6 4.8-1.6 8-3.2 12.8-3.2-3.2-6.4-4.8-8-8l-1.6-1.6v-3.2z" fill="#1afa29" p-id="9192"></path><path d="M724.8 227.2c-6.4-1.6-12.8-4.8-19.2-6.4-1.6 0-1.6-1.6-1.6-3.2s1.6-1.6 1.6-1.6c12.8 0 24 3.2 33.6 11.2h-14.4z" fill="#1afa29" p-id="9193"></path><path d="M705.6 216v6.4c-8-6.4-19.2-3.2-25.6-12.8 9.6-1.6 19.2-1.6 25.6 6.4z" fill="#1afa29" p-id="9194"></path><path d="M118.4 329.6c11.2-1.6 17.6-9.6 19.2-20.8l24-19.2c20.8-17.6 46.4-24 68.8-38.4 28.8-9.6 59.2-20.8 88-30.4 11.2-9.6 25.6-8 38.4-12.8 16-1.6 32-4.8 48-6.4 9.6-8 24-3.2 35.2-11.2 22.4-16 46.4-32 41.6-65.6-1.6-6.4 1.6-12.8 6.4-17.6 4.8-9.6 9.6-20.8 12.8-30.4 8-4.8 16-12.8 24 0 0 1.6 1.6 4.8 1.6 6.4 1.6 9.6 12.8 14.4 11.2 25.6-25.6 4.8-24 25.6-22.4 44.8 0 9.6 4.8 17.6 0 30.4 12.8-8 25.6-9.6 36.8-14.4 22.4-8 33.6 11.2 40 25.6 8 14.4-11.2 16-19.2 22.4-11.2 8-33.6 8-30.4 28.8 3.2 20.8 22.4 27.2 38.4 32 19.2 6.4 41.6 6.4 60.8 8 20.8 1.6 38.4-3.2 51.2-22.4 4.8-6.4 9.6-14.4 19.2-12.8 22.4 22.4 20.8 46.4 9.6 72-1.6 4.8-1.6 6.4 0 9.6 16 30.4-6.4 24-22.4 22.4-1.6 0-4.8-1.6-6.4-3.2-16-32-46.4-25.6-73.6-24-33.6 1.6-33.6 0-60.8-19.2 1.6 14.4 20.8 33.6-9.6 35.2 0 0-1.6 1.6-1.6 3.2 0 11.2 6.4 28.8-11.2 30.4-12.8 1.6-12.8-17.6-22.4-24-12.8-9.6-24-19.2-33.6-32-11.2-12.8-28.8-11.2-43.2 0-1.6 1.6-4.8 3.2-8 4.8-11.2 3.2-22.4 0-33.6-1.6-32-4.8-76.8 20.8-89.6 51.2-1.6 6.4 1.6 12.8 1.6 17.6 3.2 16 6.4 32 19.2 44.8 8 14.4 24 17.6 36.8 25.6 1.6 3.2 1.6 4.8 1.6 8s-1.6 4.8-4.8 8c-6.4 6.4-16 8-24 12.8 6.4 0 12.8-3.2 17.6 0 25.6 20.8 49.6 6.4 73.6 0 9.6-3.2 17.6-6.4 24 3.2 8 11.2-1.6 16-8 22.4-16 16-33.6 25.6-59.2 17.6-16-4.8-35.2-1.6-52.8-1.6-40-6.4-76.8-25.6-116.8-33.6-8-1.6-1.6-14.4-9.6-12.8-6.4 1.6-6.4 11.2-9.6 17.6-1.6 3.2-3.2 4.8-4.8 6.4-35.2 0-17.6 27.2-22.4 43.2-12.8 17.6-12.8 17.6-36.8-4.8 6.4 9.6 9.6 60.8 6.4 70.4-8 19.2-59.2 20.8-72 1.6-9.6-14.4-16-35.2-6.4-46.4 27.2-32 9.6-65.6 8-97.6 0-6.4-1.6-11.2-3.2-17.6-1.6 12.8 3.2 28.8-11.2 32-14.4 3.2-14.4-11.2-14.4-22.4 0-14.4 9.6-24 12.8-36.8-1.6-19.2 12.8-33.6 22.4-48 14.4-8 27.2-16 27.2 11.2 0 24 19.2 40 28.8 60.8 1.6 3.2 1.6 6.4 1.6 8 1.6 9.6 0 22.4 12.8 25.6 11.2 3.2 16-6.4 22.4-12.8 11.2-12.8 25.6-17.6 41.6-25.6-16 3.2-24-3.2-25.6-16-3.2-17.6-9.6-25.6-28.8-19.2-20.8 8-27.2-9.6-33.6-22.4-4.8-9.6 1.6-32-24-24v-11.2h-1.6c8-11.2 16-20.8 24-30.4z" fill="#1afa29" p-id="9195"></path><path d="M486.4 108.8c9.6 40-8 64-38.4 88-16 11.2-28.8 3.2-43.2 6.4 35.2-25.6 60.8-59.2 81.6-94.4z" fill="#1afa29" p-id="9196"></path><path d="M356.8 209.6c-11.2 9.6-24 11.2-38.4 12.8-4.8 0-9.6-1.6-12.8-6.4 12.8-1.6 24-4.8 36.8-6.4h14.4z" fill="#1afa29" p-id="9197"></path><path d="M524.8 78.4c-8-6.4-16 0-24 0 8-14.4 16-22.4 24 0z" fill="#1afa29" p-id="9198"></path><path d="M812.8 897.6c-17.6 1.6-33.6 9.6-44.8 25.6-22.4-8-41.6 4.8-62.4 12.8-84.8 20.8-169.6 20.8-256 19.2-36.8 0-70.4-16-107.2-12.8-11.2-8-24-11.2-38.4-11.2-11.2-3.2-22.4-8-35.2-9.6l-3.2-3.2c-33.6-16-64-40-99.2-51.2-6.4-3.2-14.4-6.4-19.2-12.8-9.6-12.8-22.4-25.6-35.2-38.4-1.6-3.2-3.2-6.4-1.6-9.6 4.8-19.2 16-22.4 32-12.8 25.6 12.8 44.8 35.2 73.6 44.8 112 38.4 225.6 51.2 344 40 33.6-3.2 65.6-6.4 99.2-11.2 80-12.8 155.2-38.4 220.8-86.4 20.8 0 25.6 9.6 19.2 28.8-1.6 16-14.4 22.4-24 32-11.2 16-30.4 24-43.2 38.4-6.4 4.8-12.8 11.2-19.2 17.6z" fill="#1afa29" p-id="9199"></path><path d="M611.2 966.4c-40 9.6-81.6 6.4-123.2 4.8-1.6-4.8-1.6-8 4.8-4.8 28.8-1.6 57.6-4.8 86.4-6.4 11.2 0 24-4.8 32 6.4z" fill="#1afa29" p-id="9200"></path><path d="M492.8 966.4l-4.8 4.8c-11.2-4.8-24-1.6-32-11.2 12.8 1.6 27.2-4.8 36.8 6.4z" fill="#1afa29" p-id="9201"></path><path d="M900.8 809.6c-4.8-8 3.2-22.4-12.8-25.6-4.8-14.4 9.6-20.8 14.4-30.4 16-22.4 38.4-41.6 48-68.8 3.2-6.4 8-14.4 19.2-14.4-1.6 14.4-3.2 28.8-6.4 43.2-11.2 20.8-20.8 41.6-32 62.4-14.4 9.6-16 28.8-30.4 33.6z" fill="#1afa29" p-id="9202"></path><path d="M832 878.4c9.6-19.2 27.2-27.2 43.2-38.4-8 22.4-25.6 30.4-43.2 38.4z" fill="#1afa29" p-id="9203"></path><path d="M905.6 760c-6.4 8-12.8 16-19.2 25.6-91.2 70.4-196.8 91.2-307.2 100.8-33.6 3.2-65.6 4.8-99.2 6.4-75.2 1.6-148.8-11.2-220.8-28.8-35.2-8-73.6-19.2-100.8-49.6-9.6-12.8-28.8-30.4-46.4-4.8-11.2-4.8-16-17.6-25.6-25.6-1.6-4.8-4.8-8-6.4-12.8-6.4-9.6-11.2-22.4-19.2-32l-19.2-43.2c-6.4-25.6-11.2-49.6-17.6-75.2-6.4-27.2-4.8-54.4-1.6-81.6-1.6-4.8-3.2-8-6.4-12.8 6.4-3.2 6.4-8 8-12.8 17.6 9.6 11.2 27.2 12.8 41.6-1.6 38.4 4.8 75.2 14.4 113.6 9.6 32 27.2 56 51.2 80 57.6 43.2 115.2 84.8 187.2 99.2 131.2 25.6 262.4 28.8 395.2 1.6 16-3.2 32-8 46.4-16 4.8-3.2 9.6-3.2 14.4-4.8 43.2-6.4 83.2-19.2 115.2-51.2 4.8-4.8 9.6-11.2 16-14.4 6.4-3.2 12.8-6.4 20.8-6.4 4.8 0 6.4 0 8 3.2z" fill="#1afa29" p-id="9204"></path><path d="M86.4 784c16 0 19.2 14.4 25.6 25.6v6.4c-11.2-8-24-16-25.6-32z" fill="#1afa29" p-id="9205"></path><path d="M60.8 740.8c12.8 6.4 17.6 17.6 19.2 32-11.2-8-16-19.2-19.2-32z" fill="#1afa29" p-id="9206"></path><path d="M148.8 852.8c8 0 14.4 4.8 19.2 12.8-6.4 8-11.2-1.6-17.6 0-3.2-3.2-4.8-8-8-11.2 3.2-1.6 4.8-1.6 6.4-1.6z" fill="#1afa29" p-id="9207"></path><path d="M24 540.8c0 27.2 1.6 54.4 1.6 81.6-14.4-17.6-3.2-36.8-8-56 1.6-9.6-3.2-19.2 6.4-25.6z" fill="#1afa29" p-id="9208"></path><path d="M131.2 459.2c-17.6-22.4-41.6-41.6-32-75.2-8-4.8-14.4 9.6-20.8 1.6 4.8-9.6 11.2-17.6 17.6-25.6 6.4 9.6 11.2 14.4 19.2 1.6 3.2-4.8 8-8 12.8-4.8 8 4.8 3.2 9.6 0 16-9.6 17.6 8 27.2 12.8 40 4.8 9.6 16-3.2 22.4-4.8 12.8-1.6 30.4-1.6 28.8 20.8 0 11.2-6.4 35.2 19.2 12.8 8-6.4 11.2 0 12.8 4.8 3.2 6.4 3.2 11.2-6.4 14.4-17.6 4.8-33.6 12.8-46.4 27.2-8 8-14.4 25.6-28.8 17.6-14.4-6.4-22.4-20.8-16-38.4 3.2-3.2 6.4-4.8 11.2-6.4 9.6-1.6 19.2-1.6 22.4-14.4-3.2-16-11.2-16-20.8-6.4-1.6 4.8-1.6 14.4-8 19.2z" fill="#1afa29" p-id="9209"></path><path d="M30.4 560c-1.6-14.4 4.8-30.4-4.8-43.2 4.8-28.8 8-59.2 28.8-81.6-1.6 12.8-3.2 25.6-6.4 38.4 11.2 86.4 1.6 176 59.2 251.2 4.8 6.4 9.6 14.4 4.8 22.4-11.2 6.4-17.6-3.2-25.6-9.6-41.6-52.8-49.6-115.2-56-177.6z" fill="#1afa29" p-id="9210"></path><path d="M273.6 923.2l-6.4 6.4-14.4-9.6c4.8-1.6 9.6-1.6 12.8-3.2 4.8 1.6 8 3.2 8 6.4z" fill="#1afa29" p-id="9211"></path><path d="M712 252.8c-35.2 62.4-89.6 41.6-140.8 30.4-19.2-4.8-36.8-14.4-40-38.4-3.2-25.6 22.4-24 33.6-33.6 6.4-6.4 16-8 25.6-11.2-19.2-33.6-22.4-32-92.8-1.6 11.2-17.6 11.2-32 8-48 3.2-1.6 6.4-1.6 8 1.6 14.4 16 25.6 16 33.6-6.4 1.6-3.2 4.8-6.4 8-8 16 11.2 17.6 36.8 36.8 44.8 12.8 16 30.4 16 48 19.2 25.6 16 54.4 22.4 83.2 30.4 14.4 9.6 32 12.8 49.6 19.2 0 1.6 1.6 3.2 1.6 4.8 8 9.6 9.6 22.4-1.6 30.4-11.2 6.4-14.4-8-19.2-14.4-9.6-11.2-25.6-14.4-41.6-19.2z" fill="#1afa29" p-id="9212"></path><path d="M556.8 139.2v3.2c-6.4 12.8-1.6 32-20.8 33.6-16 3.2-19.2-16-28.8-24 1.6-8 3.2-16 1.6-24-3.2-25.6 12.8-22.4 28.8-19.2 4.8 11.2 17.6 16 19.2 30.4z" fill="#1afa29" p-id="9213"></path><path d="M905.6 760h-6.4c-9.6-17.6 6.4-25.6 12.8-38.4 25.6-43.2 49.6-86.4 62.4-136 1.6-3.2 3.2-6.4 4.8-8 3.2-1.6 6.4-1.6 9.6 1.6 1.6 6.4 3.2 12.8-1.6 19.2v12.8c-3.2 6.4-6.4 11.2-6.4 19.2 8 17.6-4.8 30.4-12.8 43.2h-1.6c-16 28.8-35.2 59.2-60.8 86.4z" fill="#1afa29" p-id="9214"></path><path d="M969.6 672c1.6-16 14.4-27.2 12.8-43.2 11.2 19.2 4.8 32-12.8 43.2z" fill="#1afa29" p-id="9215"></path><path d="M273.6 923.2l-6.4-6.4c14.4 0 27.2 3.2 38.4 12.8-11.2 0-20.8-1.6-32-6.4z" fill="#1afa29" p-id="9216"></path><path d="M712 252.8c25.6 0 51.2-1.6 56 36.8 9.6-11.2 4.8-20.8 6.4-30.4 25.6 6.4 44.8 22.4 67.2 33.6 11.2 11.2 22.4 19.2 36.8 25.6 3.2 16 17.6 24 25.6 35.2l6.4 6.4c6.4 11.2 0 14.4-8 11.2-12.8-3.2-24-11.2-36.8-16-6.4 6.4-1.6 16-3.2 22.4-1.6 6.4 0 16-4.8 20.8-20.8 17.6-48 28.8-62.4 56-3.2 6.4-14.4-1.6-20.8-8s-9.6-16-17.6-22.4c-11.2-9.6-25.6-16-33.6 1.6-20.8 43.2-56 65.6-104 65.6-8 0-14.4 4.8-20.8 8-4.8 1.6-9.6 1.6-14.4 0-27.2-14.4-27.2-17.6-11.2-38.4 6.4-1.6 12.8 0 19.2 3.2 3.2 0 6.4 1.6 8 3.2 20.8 6.4 40 3.2 59.2-6.4 4.8-3.2 8-8 11.2-11.2 19.2-16 24-36.8 20.8-60.8-1.6-6.4-1.6-12.8-1.6-17.6 0-6.4 1.6-12.8 8-17.6 8-1.6 14.4-3.2 22.4-4.8 0-12.8-9.6-12.8-16-16-6.4-3.2-8-12.8 0-14.4 38.4-8 0-33.6 11.2-48 1.6-1.6-3.2-11.2-3.2-17.6z" fill="#1afa29" p-id="9217"></path><path d="M600 497.6c1.6-16 14.4-12.8 24-12.8 46.4 0 78.4-22.4 94.4-65.6 1.6-6.4 1.6-12.8 11.2-11.2 12.8 3.2 28.8-4.8 36.8 9.6 3.2 4.8 3.2 9.6 6.4 14.4 4.8 8 11.2 17.6 20.8 17.6 11.2 0 12.8-12.8 14.4-20.8 1.6-17.6 6.4-28.8 28.8-20.8 14.4 4.8 19.2-9.6 20.8-20.8 1.6-16 0-32-1.6-49.6 14.4 14.4 35.2 16 49.6 28.8 6.4 6.4 8 1.6 9.6-4.8 6.4 4.8 11.2 8 17.6 12.8 1.6 3.2 4.8 8 8 11.2 0 8 4.8 14.4 11.2 19.2 4.8 12.8 9.6 27.2 19.2 38.4 0 1.6 0 3.2 1.6 4.8v17.6c1.6 3.2 1.6 4.8 0 8-22.4-14.4-36.8-35.2-54.4-51.2 12.8 36.8 0 54.4-51.2 59.2 14.4 4.8 36.8-9.6 40 11.2 3.2 20.8-20.8 16-33.6 22.4-6.4 3.2-11.2 9.6-17.6 12.8h-6.4c3.2 1.6 4.8-1.6 8 0 6.4 4.8 12.8 11.2 14.4 19.2 4.8 14.4 9.6 32-4.8 43.2-14.4 9.6-19.2-9.6-28.8-16-3.2-1.6-4.8-3.2-8-6.4-11.2-22.4-22.4-43.2-16-68.8-54.4-25.6-107.2-11.2-158.4 20.8l-6.4 6.4c-9.6 6.4-19.2 9.6-30.4 8-3.2 0-4.8-1.6-8-3.2 4.8-14.4-20.8-17.6-11.2-33.6z" fill="#1afa29" p-id="9218"></path><path d="M988.8 596.8c0-6.4 0-12.8-1.6-19.2-12.8-24-12.8-49.6 0-73.6 0-4.8 0-8 1.6-12.8 11.2 17.6 3.2 38.4 6.4 56-3.2 17.6 4.8 35.2-6.4 49.6z" fill="#1afa29" p-id="9219"></path><path d="M987.2 504v73.6h-4.8c-3.2-1.6-6.4-4.8-6.4-8-4.8-17.6-3.2-35.2-1.6-54.4 1.6-4.8 3.2-11.2 8-14.4 1.6 1.6 3.2 3.2 4.8 3.2z" fill="#1afa29" p-id="9220"></path><path d="M982.4 502.4v12.8c-17.6-3.2-12.8-19.2-16-30.4 0-4.8 0-9.6 4.8-12.8v-6.4c8 9.6 9.6 22.4 11.2 36.8z" fill="#1afa29" p-id="9221"></path><path d="M969.6 484.8c11.2 8 0 24 12.8 32v56c-8 9.6-4.8 22.4-9.6 33.6-22.4 52.8-44.8 104-81.6 148.8-14.4 6.4-24 16-33.6 28.8-16 16-35.2 25.6-56 32-9.6 3.2-22.4 1.6-30.4 9.6-6.4 6.4-16 4.8-22.4 9.6H736c-22.4 12.8-46.4 17.6-70.4 19.2-54.4 9.6-110.4 9.6-164.8 17.6-107.2-3.2-212.8-9.6-310.4-57.6-30.4-16-59.2-36.8-80-65.6-3.2-20.8-22.4-30.4-30.4-49.6-32-68.8-32-142.4-36.8-216 0-3.2 3.2-6.4 4.8-9.6 1.6 4.8 1.6 12.8 3.2 14.4 12.8 1.6 9.6-8 9.6-12.8 0-8 0-16 4.8-24 1.6-3.2 3.2-4.8 6.4-8 14.4 35.2 6.4 73.6 19.2 107.2 3.2 6.4 3.2 19.2-8 19.2-28.8 0-14.4 20.8-14.4 30.4 0 12.8 4.8 27.2 25.6 28.8 38.4 0 30.4 0 36.8-40 3.2-19.2-11.2-36.8 1.6-59.2 0 20.8 25.6 17.6 24 36.8 3.2-4.8 6.4-8 11.2-12.8l3.2 3.2c4.8 8 4.8 17.6 4.8 27.2-1.6 33.6 11.2 59.2 36.8 80 40 36.8 88 56 137.6 73.6 8 3.2 16 4.8 22.4 6.4 75.2 19.2 150.4 22.4 225.6 1.6 3.2-1.6 6.4-1.6 9.6-3.2 12.8-1.6 27.2-3.2 38.4-11.2 9.6-4.8 20.8-8 32-12.8 17.6-9.6 40-12.8 51.2-33.6 1.6-3.2 3.2-4.8 4.8-6.4 1.6-1.6 4.8-3.2 8-4.8 17.6-4.8 33.6-12.8 46.4-27.2l14.4-9.6c4.8-1.6 9.6-3.2 16-4.8 3.2-1.6 8-1.6 12.8-1.6 11.2 1.6 17.6-14.4 30.4-8 11.2 11.2 4.8 24 4.8 35.2 0 9.6 1.6 17.6 12.8 16 33.6-1.6 59.2-32 56-65.6-1.6-14.4-6.4-28.8-4.8-43.2 0-9.6 0-20.8 11.2-24 16-3.2 9.6 14.4 16 19.2-6.4-19.2-8-40-12.8-60.8-3.2-11.2-11.2-24 0-32 12.8-8 14.4 12.8 24 17.6z" fill="#1afa29" p-id="9222"></path><path d="M699.2 353.6v17.6c-12.8 6.4-14.4-8-20.8-12.8-3.2-3.2-4.8-6.4-8-8-6.4-6.4-16-8-25.6-8-32-3.2-64-6.4-83.2 27.2-9.6 16-12.8 32-6.4 49.6 3.2 14.4 14.4 22.4 22.4 33.6 3.2 4.8 6.4 9.6 3.2 16-30.4 17.6 0 22.4 6.4 32 3.2 9.6-3.2 12.8-11.2 14.4-4.8 0-9.6-3.2-14.4-4.8-9.6-3.2-25.6 8-30.4-6.4-6.4-14.4 14.4-19.2 16-28.8 6.4-3.2-1.6-6.4 1.6-3.2 0 0 0 1.6-1.6 3.2-30.4 17.6-51.2-8-76.8-14.4-6.4-1.6-11.2-9.6-16-14.4-1.6-3.2-3.2-8-1.6-12.8 6.4-17.6 6.4-35.2 0-52.8-1.6-4.8-4.8-9.6-8-14.4-8-9.6-17.6-19.2-30.4-22.4-11.2-3.2-20.8-3.2-32-3.2-25.6 0-43.2 14.4-57.6 32-8 8-9.6 19.2-16 28.8-3.2 1.6-4.8 1.6-8 1.6-12.8-32 16-41.6 30.4-59.2 16-19.2 40-24 64-20.8 12.8 1.6 24 4.8 36.8 4.8 43.2 19.2 43.2 19.2 48 70.4 0-51.2 0-51.2-48-70.4 1.6-11.2 6.4-22.4 19.2-14.4 11.2 6.4 33.6-19.2 36.8 11.2 1.6 11.2 11.2 14.4 17.6 19.2 12.8 9.6 28.8 16 27.2 36.8 11.2-4.8 11.2-12.8 8-19.2-3.2-6.4-14.4-12.8-4.8-20.8 8-8 14.4 8 24 3.2 1.6-14.4-17.6-20.8-19.2-36.8 17.6 3.2 30.4 11.2 44.8 19.2 17.6 11.2 48 6.4 68.8 0 19.2-4.8 25.6-1.6 27.2 12.8 3.2 6.4 14.4 6.4 17.6 14.4z" fill="#1afa29" p-id="9223"></path><path d="M336 528c20.8 0 43.2-1.6 64 4.8 24 8 30.4-20.8 49.6-25.6 0 0 0-6.4-1.6-8-3.2-4.8-6.4-4.8-12.8-1.6-25.6 9.6-51.2 30.4-80 3.2-11.2-9.6-25.6 8-38.4-1.6 12.8-12.8 25.6-22.4 44.8-22.4h4.8c30.4 0 60.8-6.4 89.6-8 30.4-1.6 40 6.4 40 30.4 1.6 43.2-1.6 48-36.8 48-16 0-33.6-1.6-49.6 3.2-25.6 0-52.8 1.6-73.6-22.4z" fill="#1afa29" p-id="9224"></path><path d="M336 528c24 8 49.6 17.6 75.2 19.2 3.2-1.6 6.4-3.2 9.6-1.6 28.8 1.6 57.6 1.6 86.4-1.6 16 0 30.4-6.4 46.4-9.6 16-3.2 30.4-8 44.8-11.2 4.8 0 9.6 0 12.8 3.2 1.6 0 4.8 1.6 6.4 1.6-12.8 25.6-40 24-60.8 33.6-44.8 11.2-91.2 4.8-136 4.8-24-6.4-48-8-70.4-14.4-32-12.8-65.6-19.2-97.6-30.4-17.6-6.4-35.2-3.2-52.8-3.2-4.8-1.6-9.6-3.2-8-9.6 4.8-6.4 9.6-12.8 19.2-12.8 32-1.6 59.2 14.4 89.6 22.4 12.8 4.8 24 6.4 35.2 9.6z" fill="#1afa29" p-id="9225"></path><path d="M193.6 508.8c1.6 1.6 3.2 4.8 4.8 6.4 1.6 17.6-16 24-20.8 38.4-3.2 1.6-4.8 1.6-8 0l-1.6-1.6v-9.6c-1.6-9.6-16-14.4-8-28.8 9.6-16 22.4 1.6 33.6-4.8z" fill="#1afa29" p-id="9226"></path><path d="M142.4 465.6h-12.8v-6.4c-1.6-17.6 1.6-33.6 22.4-36.8 16-1.6 19.2 12.8 20.8 24-14.4 0-28.8-1.6-30.4 19.2z" fill="#1afa29" p-id="9227"></path><path d="M211.2 497.6c-6.4 4.8-12.8 8-19.2 12.8 0-9.6-1.6-19.2 4.8-25.6 8-6.4 19.2-9.6 24-1.6 11.2 11.2-9.6 6.4-9.6 14.4z" fill="#1afa29" p-id="9228"></path><path d="M361.6 465.6c-17.6-1.6-33.6-4.8-36.8-25.6 1.6-1.6 3.2-1.6 3.2-3.2 19.2 1.6 35.2 8 48 24-3.2 8-8 9.6-14.4 4.8z" fill="#1afa29" p-id="9229"></path><path d="M361.6 478.4v-6.4c12.8-6.4 27.2-8 40-11.2 8-1.6 14.4-4.8 22.4-8 8-1.6 16-8 20.8 4.8-20.8 32-51.2 25.6-83.2 20.8z" fill="#1afa29" p-id="9230"></path><path d="M299.2 398.4c1.6 0 3.2-1.6 4.8-1.6 11.2 3.2 12.8 14.4 19.2 22.4 4.8 6.4 4.8 14.4 0 20.8-20.8-4.8-16-27.2-24-41.6z" fill="#1afa29" p-id="9231"></path><path d="M406.4 467.2c-14.4 9.6-30.4 3.2-44.8 4.8 0-1.6 0-3.2-1.6-4.8 4.8-1.6 11.2-1.6 14.4-6.4 4.8-4.8 11.2-4.8 17.6-4.8 6.4 1.6 12.8 4.8 14.4 11.2z" fill="#1afa29" p-id="9232"></path><path d="M112 747.2c32 17.6 56 46.4 88 64 33.6 19.2 70.4 25.6 105.6 33.6 64 14.4 128 19.2 193.6 20.8 56-8 113.6-4.8 169.6-19.2 22.4-4.8 46.4-8 68.8-12.8-11.2 20.8-33.6 19.2-51.2 22.4-73.6 12.8-148.8 27.2-225.6 20.8-81.6-6.4-163.2-12.8-240-43.2-48-17.6-83.2-52.8-123.2-81.6-6.4-4.8-12.8-9.6-6.4-19.2 8 6.4 14.4 9.6 20.8 14.4z" fill="#1afa29" p-id="9233"></path><path d="M888 753.6c33.6-46.4 54.4-99.2 81.6-150.4 8-3.2-3.2-20.8 12.8-19.2-6.4 51.2-35.2 94.4-59.2 137.6-6.4 12.8-19.2 22.4-20.8 36.8-6.4 1.6-12.8 4.8-19.2 6.4-6.4-6.4 1.6-8 4.8-11.2z" fill="#1afa29" p-id="9234"></path><path d="M92.8 734.4c1.6 6.4 4.8 12.8 6.4 19.2-38.4-25.6-51.2-67.2-60.8-108.8-6.4-27.2-11.2-56-8-84.8 11.2 20.8 4.8 43.2 11.2 65.6 12.8 38.4 24 76.8 51.2 108.8z" fill="#1afa29" p-id="9235"></path><path d="M800 809.6c22.4-3.2 36.8-20.8 56-32 4.8-3.2 8-3.2 12.8 0-30.4 38.4-73.6 49.6-118.4 56 6.4-4.8 12.8-8 19.2-12.8 6.4-9.6 20.8-4.8 30.4-11.2z" fill="#1afa29" p-id="9236"></path><path d="M868.8 779.2h-12.8c8-11.2 16-24 32-25.6-1.6 4.8-4.8 8-6.4 12.8-4.8 3.2-8 8-12.8 12.8z" fill="#1afa29" p-id="9237"></path><path d="M142.4 465.6c-4.8-9.6-11.2-19.2 0-27.2 12.8-11.2 20.8 3.2 30.4 8-3.2 17.6-14.4 20.8-30.4 19.2z" fill="#1afa29" p-id="9238"></path><path d="M561.6 265.6c-6.4-4.8-17.6-8-17.6-19.2 6.4-8 9.6-19.2 24-12.8 9.6 19.2 25.6 20.8 44.8 20.8 12.8 0 24 1.6 41.6 3.2-17.6-17.6-36.8-14.4-56-16-11.2-1.6-27.2 6.4-28.8-16 27.2-3.2 52.8-9.6 78.4 1.6 17.6 11.2 48 17.6 25.6 49.6-38.4 9.6-75.2 4.8-112-11.2z" fill="#1afa29" p-id="9239"></path><path d="M649.6 228.8c-27.2 1.6-54.4-8-81.6 6.4-11.2-1.6-16 9.6-24 12.8 14.4-33.6 72-43.2 105.6-19.2zM561.6 265.6c36.8 6.4 73.6 16 112 11.2-38.4 12.8-75.2 12.8-112-11.2z" fill="#1afa29" p-id="9240"></path><path d="M518.4 139.2c1.6-8-3.2-20.8 8-20.8 14.4 1.6 16 16 17.6 28.8 1.6 6.4 1.6 16-8 16-17.6 0-17.6-12.8-17.6-24z" fill="#1afa29" p-id="9241"></path><path d="M980.8 584c-4.8 6.4-8 12.8-12.8 19.2 0-12.8-1.6-25.6 12.8-32v6.4c1.6 3.2 0 4.8 0 6.4z" fill="#1afa29" p-id="9242"></path><path d="M361.6 478.4c20.8 0 41.6 1.6 60.8-6.4 9.6-4.8 20.8-6.4 19.2-19.2-1.6-3.2-1.6-4.8 0-8 3.2-3.2 6.4-4.8 11.2-3.2 20.8 9.6 43.2 16 62.4 25.6 17.6 8 22.4 4.8 28.8-8 3.2-4.8 4.8-9.6 11.2-6.4 4.8 3.2 6.4 9.6 1.6 12.8-9.6 9.6-8 28.8-27.2 33.6 19.2-14.4 38.4 17.6 56-1.6h12.8c0 9.6 6.4 11.2 12.8 14.4 16 4.8 3.2 11.2 0 17.6-4.8 0-8 0-12.8 1.6-14.4 6.4-32 0-44.8 12.8-14.4 6.4-28.8 12.8-44.8 12.8-30.4-8-62.4 3.2-94.4-6.4h-3.2-3.2c17.6-12.8 36.8-4.8 54.4-6.4 16 0 27.2 0 20.8-20.8-1.6-6.4 0-12.8 1.6-17.6 8-20.8-4.8-24-20.8-22.4-28.8 1.6-57.6 4.8-86.4 9.6-4.8-3.2-14.4 0-16-14.4z" fill="#1afa29" p-id="9243"></path><path d="M675.2 454.4c-1.6 3.2-4.8 6.4-6.4 11.2-22.4 6.4-44.8 16-68.8 8-1.6 0-3.2-1.6-6.4-1.6 0-8 6.4-9.6 11.2-11.2 4.8 0 9.6-1.6 14.4 1.6 11.2 4.8 0-4.8 3.2-4.8 12.8-12.8 27.2-14.4 43.2-16 8 0 9.6 6.4 9.6 12.8z" fill="#1afa29" p-id="9244"></path><path d="M675.2 454.4c-4.8-1.6-6.4-6.4-6.4-11.2-6.4-8 1.6-12.8 4.8-17.6 8-8 9.6-19.2 16-27.2 3.2-3.2 6.4-6.4 9.6-6.4 6.4 24 0 46.4-24 62.4z" fill="#1afa29" p-id="9245"></path><path d="M700.8 390.4l-6.4 6.4c-8-4.8-11.2-14.4-17.6-20.8-3.2-3.2-4.8-8-4.8-12.8 1.6-6.4 4.8-11.2 11.2-12.8 6.4 6.4 11.2 12.8 17.6 19.2v20.8z" fill="#1afa29" p-id="9246"></path><path d="M600 472c22.4-3.2 46.4-4.8 68.8-8-22.4 12.8-44.8 20.8-68.8 8z" fill="#1afa29" p-id="9247"></path><path d="M606.4 465.6c-4.8 1.6-8 3.2-12.8 4.8-4.8 1.6-9.6 0-12.8-4.8-1.6-3.2-4.8-8-6.4-11.2 1.6-4.8 3.2-8 8-9.6 6.4-1.6 11.2 1.6 16 4.8 3.2 4.8 11.2 6.4 8 16z" fill="#1afa29" p-id="9248"></path><path d="M832 635.2h-12.8c-4.8-24 1.6-46.4 12.8-68.8 11.2-3.2 19.2-3.2 19.2 12.8 0 4.8 4.8 9.6 9.6 9.6 8 0 6.4-8 8-14.4 3.2-19.2-9.6-32-19.2-46.4 4.8-14.4 9.6-25.6 28.8-24 8 0 24 1.6 22.4-9.6-1.6-14.4-16-6.4-22.4-4.8-16 3.2-22.4-3.2-30.4-14.4 67.2-1.6 72-8 49.6-80 30.4 27.2 54.4 48 70.4 76.8v12.8c-14.4 8-9.6-16-24-12.8 14.4 36.8 14.4 76.8 17.6 120-20.8-14.4-4.8-35.2-20.8-49.6-6.4 17.6-4.8 33.6-1.6 49.6 4.8 19.2 6.4 40-4.8 57.6-4.8 8-4.8 28.8-24 12.8-4.8-4.8-9.6 3.2-12.8 9.6-8 19.2-25.6 12.8-36.8 11.2-11.2-1.6-4.8-17.6-6.4-27.2-1.6-11.2 12.8-20.8 0-32s-16 4.8-22.4 11.2z" fill="#1afa29" p-id="9249"></path><path d="M832 566.4c1.6 24-3.2 46.4-12.8 68.8-3.2 4.8-8 4.8-14.4 4.8-8-14.4 8-25.6 8-38.4 6.4-38.4 4.8-73.6-30.4-99.2-28.8-17.6-56-1.6-83.2 6.4-16 4.8-32 17.6-49.6 8 40-24 81.6-49.6 131.2-33.6 16 4.8 38.4-4.8 48 14.4 1.6 4.8 11.2 9.6 1.6 14.4-3.2 1.6-8-3.2-12.8-6.4 4.8 20.8 9.6 40 14.4 60.8z" fill="#1afa29" p-id="9250"></path><path d="M649.6 516.8c28.8-9.6 59.2-17.6 88-27.2 17.6-6.4 33.6-4.8 49.6 8-3.2 4.8-8 6.4-12.8 8-38.4-1.6-70.4 19.2-105.6 25.6-6.4 0-14.4-1.6-19.2-6.4v-8z" fill="#1afa29" p-id="9251"></path><path d="M819.2 435.2c9.6-17.6 24-12.8 36.8-6.4 4.8 8 4.8 16 0 24-25.6 11.2-33.6 6.4-36.8-17.6z" fill="#1afa29" p-id="9252"></path><path d="M649.6 521.6h19.2c0 12.8-11.2 12.8-17.6 16-16 4.8-32 9.6-46.4 17.6-4.8 1.6-9.6 4.8-14.4 6.4-8 3.2-14.4 8-22.4 6.4-3.2 0-4.8-1.6-6.4-4.8-1.6-4.8-1.6-8 3.2-11.2 19.2-9.6 40-11.2 57.6-24 6.4-1.6 17.6-3.2 27.2-6.4z" fill="#1afa29" p-id="9253"></path><path d="M819.2 435.2c4.8 22.4 19.2 24 38.4 19.2-6.4 14.4-17.6 14.4-30.4 6.4-11.2-6.4-20.8-12.8-8-25.6z" fill="#1afa29" p-id="9254"></path><path d="M849.6 528c-1.6 4.8-1.6 9.6-3.2 14.4-1.6-1.6-6.4-1.6-6.4-3.2-3.2-9.6 4.8-9.6 9.6-11.2z" fill="#1afa29" p-id="9255"></path><path d="M856 452.8v-24c11.2 8 8 16 0 24z" fill="#1afa29" p-id="9256"></path><path d="M737.6 680c0 1.6 0 3.2-1.6 4.8-4.8 6.4-9.6 9.6-17.6 9.6-8 0-17.6-3.2-22.4 6.4-1.6 3.2-4.8 6.4-8 8-12.8 4.8-24 9.6-33.6 19.2-3.2 1.6-8 4.8-11.2 6.4-17.6 6.4-38.4 8-56 17.6-3.2 1.6-6.4 1.6-9.6 1.6-67.2 11.2-132.8 9.6-198.4-6.4-35.2-12.8-72-24-105.6-41.6-9.6-4.8-19.2-8-20.8-20.8-1.6-12.8 8-20.8 17.6-27.2 92.8-73.6 196.8-96 313.6-70.4 51.2 11.2 99.2 28.8 140.8 60.8 8 6.4 20.8 14.4 12.8 32z" fill="#1afa29" p-id="9257"></path><path d="M737.6 680c-3.2-27.2-30.4-35.2-48-44.8-115.2-64-278.4-76.8-395.2 14.4-14.4 11.2-35.2 14.4-40 36.8-17.6 6.4-25.6-6.4-35.2-17.6 0-28.8 24-40 43.2-54.4 12.8-9.6 25.6-17.6 40-20.8 28.8 16 52.8 4.8 73.6-17.6 35.2-9.6 72-3.2 107.2-4.8 16-1.6 30.4 1.6 46.4-1.6 9.6-1.6 19.2-8 30.4-3.2v1.6c8 9.6 17.6 9.6 27.2 6.4 8-1.6 17.6-1.6 24 6.4 3.2 1.6-4.8 6.4 0 6.4 9.6 0 17.6 3.2 25.6 4.8 24 8 46.4 25.6 73.6 16 9.6-3.2 12.8 3.2 14.4 12.8 1.6 20.8 17.6 20.8 32 22.4 1.6 1.6 4.8 3.2 4.8 6.4 0 14.4-12.8 20.8-20.8 30.4 0-1.6-1.6-1.6-3.2 0z" fill="#1afa29" p-id="9258"></path><path d="M224 665.6c9.6 6.4 17.6 17.6 32 17.6 25.6 20.8 56 30.4 86.4 43.2 11.2 4.8 22.4 9.6 33.6 12.8-9.6 6.4-17.6 4.8-27.2 1.6-51.2-16-100.8-33.6-137.6-73.6 0-1.6 1.6-1.6 1.6-3.2 4.8-1.6 8-1.6 11.2 1.6z" fill="#1afa29" p-id="9259"></path><path d="M608 748.8c-12.8 12.8-30.4 12.8-46.4 14.4-65.6 4.8-131.2 9.6-193.6-16 19.2-11.2 38.4 1.6 57.6 4.8 54.4 8 108.8 6.4 163.2-4.8 4.8-3.2 12.8-4.8 19.2 1.6z" fill="#1afa29" p-id="9260"></path><path d="M587.2 747.2c-64 22.4-128 12.8-192 3.2-9.6-1.6-17.6-1.6-27.2-3.2-6.4 0-14.4 0-19.2-6.4 9.6 0 17.6 0 27.2-1.6 70.4 17.6 140.8 19.2 211.2 8z" fill="#1afa29" p-id="9261"></path><path d="M668.8 848c-54.4 19.2-112 19.2-169.6 19.2 19.2-12.8 41.6-9.6 62.4-11.2 35.2-3.2 72-8 107.2-8z" fill="#1afa29" p-id="9262"></path><path d="M169.6 553.6c1.6 0 3.2-1.6 4.8-1.6 16 19.2 3.2 46.4 16 67.2 3.2 6.4 6.4 11.2 11.2 17.6 3.2 4.8 4.8 9.6 8 12.8 3.2 4.8 4.8 9.6 3.2 14.4l-1.6 3.2c-32-14.4-40-44.8-43.2-76.8-1.6-11.2 0-24 1.6-36.8z" fill="#1afa29" p-id="9263"></path><path d="M744 678.4c1.6-14.4 14.4-19.2 20.8-30.4 8-8 17.6-16 30.4-8 1.6 3.2 1.6 4.8-1.6 8-12.8 17.6-27.2 28.8-49.6 30.4z" fill="#1afa29" p-id="9264"></path><path d="M688 704l6.4-6.4c6.4-8 16-4.8 24-8l19.2-4.8c-8 28.8-35.2 28.8-56 38.4-1.6-1.6-3.2-4.8-3.2-6.4 0-8 4.8-9.6 9.6-12.8z" fill="#1afa29" p-id="9265"></path><path d="M832 635.2c0-11.2 1.6-22.4 12.8-25.6 9.6-3.2 9.6 8 12.8 12.8-11.2 0-11.2 20.8-25.6 12.8z" fill="#1afa29" p-id="9266"></path><path d="M608 748.8c-6.4 0-14.4-1.6-20.8-1.6 17.6-11.2 36.8-16 56-19.2 1.6 1.6 3.2 3.2 1.6 4.8 0 1.6 0 3.2-1.6 3.2-9.6 8-22.4 6.4-32 12.8H608z" fill="#1afa29" p-id="9267"></path><path d="M793.6 646.4V640c-1.6-16 6.4-28.8 17.6-38.4 3.2-1.6 6.4 0 8 1.6 3.2 14.4-11.2 24-14.4 36.8-3.2 3.2-8 4.8-11.2 6.4z" fill="#1afa29" p-id="9268"></path><path d="M643.2 734.4v-6.4c1.6-1.6 4.8-3.2 6.4-6.4 9.6-3.2 19.2-11.2 30.4-8v8c-8 8-19.2 9.6-30.4 12.8-1.6 3.2-4.8 3.2-6.4 0z" fill="#1afa29" p-id="9269"></path><path d="M800 809.6c-8 8-20.8 9.6-32 12.8 4.8-20.8 20.8-9.6 32-12.8z" fill="#1afa29" p-id="9270"></path><path d="M643.2 734.4c3.2 0 4.8 0 8 1.6-11.2 9.6-24 12.8-38.4 12.8 8-9.6 19.2-11.2 30.4-14.4z" fill="#1afa29" p-id="9271"></path><path d="M430.4 321.6c14.4 1.6 28.8 0 43.2 4.8 16 4.8 19.2 19.2 16 35.2-3.2 16-8 32-12.8 56-6.4-41.6-8-78.4-46.4-96z" fill="#1afa29" p-id="9272"></path><path d="M555.2 364.8c20.8-41.6 59.2-33.6 94.4-30.4 1.6 3.2 1.6 6.4 0 8-14.4 9.6-30.4 3.2-44.8 8-4.8 1.6-11.2 4.8-16 8-9.6 8-16 17.6-22.4 27.2-3.2 4.8-8 9.6-14.4 1.6 1.6-8 0-16 3.2-22.4z" fill="#1afa29" p-id="9273"></path><path d="M318.4 364.8c12.8-25.6 33.6-36.8 62.4-38.4 3.2 6.4 0 11.2-4.8 14.4-19.2 6.4-28.8 25.6-49.6 30.4-4.8 1.6-6.4-1.6-8-6.4z" fill="#1afa29" p-id="9274"></path><path d="M318.4 364.8c1.6 1.6 3.2 4.8 6.4 6.4 8 17.6 3.2 33.6-4.8 49.6-11.2-4.8-8-17.6-14.4-25.6-1.6-11.2 1.6-22.4 12.8-30.4z" fill="#1afa29" p-id="9275"></path><path d="M454.4 440c-3.2 1.6-8 3.2-11.2 4.8-3.2-1.6-6.4-3.2-8-6.4 4.8-20.8 1.6-43.2 16-62.4 3.2 0 6.4 1.6 8 4.8 0 16 3.2 32-1.6 48-1.6 4.8-3.2 8-3.2 11.2z" fill="#1afa29" p-id="9276"></path><path d="M580.8 446.4l-8 8c-11.2-8-24-14.4-24-32 3.2-4.8 1.6-11.2 8-14.4 16 8 24 20.8 24 38.4z" fill="#1afa29" p-id="9277"></path><path d="M419.2 332.8c14.4 3.2 24 12.8 30.4 25.6-1.6 4.8-4.8 8-9.6 8-14.4-4.8-28.8-11.2-32-28.8 3.2-3.2 4.8-6.4 11.2-4.8z" fill="#1afa29" p-id="9278"></path><path d="M555.2 409.6c0 4.8-1.6 9.6-6.4 11.2-11.2-20.8-4.8-38.4 6.4-57.6v25.6c6.4 8 6.4 14.4 0 20.8z" fill="#1afa29" p-id="9279"></path><path d="M419.2 332.8c-3.2 3.2-4.8 6.4-8 8-12.8 8-25.6 9.6-36.8-3.2 1.6-3.2 4.8-8 6.4-11.2 12.8 1.6 27.2-3.2 38.4 6.4z" fill="#1afa29" p-id="9280"></path><path d="M456 428.8c0-17.6 0-35.2-1.6-52.8-1.6-1.6-1.6-4.8 0-6.4 11.2 20.8 16 40 1.6 59.2z" fill="#1afa29" p-id="9281"></path><path d="M649.6 340.8v-6.4c11.2 0 20.8 1.6 27.2 11.2-3.2 4.8-8 6.4-12.8 6.4-4.8 0-9.6-1.6-14.4-3.2-1.6-3.2-1.6-4.8 0-8z" fill="#1afa29" p-id="9282"></path><path d="M659.2 347.2c4.8 0 11.2-1.6 16-1.6 1.6 1.6 3.2 3.2 6.4 4.8-1.6 3.2-4.8 8-6.4 11.2-1.6 8-6.4 3.2-9.6 1.6-3.2-3.2-6.4-9.6-6.4-16z" fill="#1afa29" p-id="9283"></path><path d="M456 371.2v6.4c-1.6 0-4.8 1.6-6.4 1.6-8 0-9.6-4.8-6.4-12.8l8-8c1.6 4.8 3.2 9.6 4.8 12.8z" fill="#1afa29" p-id="9284"></path><path d="M187.2 628.8c-19.2-22.4-9.6-49.6-12.8-75.2 0-17.6 12.8-27.2 24-36.8 12.8-8 27.2-11.2 41.6-6.4 36.8 12.8 75.2 19.2 110.4 36.8 1.6 3.2 0 6.4-1.6 8-22.4 6.4-41.6-6.4-62.4-11.2-17.6-4.8-33.6-9.6-51.2-12.8-8 0-14.4 0-20.8 3.2-28.8 22.4-24 51.2-20.8 81.6-1.6 4.8-3.2 9.6-6.4 12.8z" fill="#1afa29" p-id="9285"></path><path d="M561.6 564.8c-8 4.8-16 8-25.6 8-3.2 1.6-6.4 1.6-9.6 1.6-33.6-3.2-65.6 0-99.2-1.6-3.2 0-6.4-1.6-9.6-3.2-3.2-3.2-3.2-6.4 0-9.6 48 0 96 3.2 144-6.4v11.2z" fill="#1afa29" p-id="9286"></path><path d="M417.6 560v6.4c-6.4 8-14.4 6.4-22.4 6.4-16 0-33.6 1.6-44.8-14.4 0-1.6-1.6-3.2-1.6-4.8v-6.4c24 3.2 46.4 8 68.8 12.8z" fill="#1afa29" p-id="9287"></path><path d="M417.6 547.2c32 3.2 64-6.4 94.4 6.4-32-3.2-64 6.4-94.4-6.4zM555.2 540.8c9.6-22.4 28.8-8 44.8-12.8-14.4 8-28.8 11.2-44.8 12.8z" fill="#1afa29" p-id="9288"></path><path d="M443.2 366.4c1.6 4.8 4.8 8 6.4 12.8 3.2 22.4 1.6 43.2-12.8 60.8-1.6 11.2-11.2 12.8-17.6 17.6-8 3.2-16 1.6-25.6 1.6h-17.6c-19.2 0-30.4-19.2-49.6-19.2l-4.8-19.2c-4.8-17.6-1.6-33.6 4.8-49.6 16-11.2 27.2-30.4 49.6-33.6 12.8 1.6 24 1.6 36.8 3.2 9.6 9.6 19.2 17.6 30.4 25.6z" fill="#1afa29" p-id="9289"></path><path d="M393.6 459.2c8-3.2 16-4.8 24-8 4.8 1.6 6.4 4.8 8 8-4.8 6.4-11.2 6.4-19.2 6.4-4.8 0-11.2-1.6-12.8-6.4z" fill="#1afa29" p-id="9290"></path><path d="M425.6 460.8c-3.2-3.2-4.8-6.4-8-8 6.4-3.2 12.8-8 17.6-11.2 1.6 1.6 4.8 3.2 6.4 4.8v6.4c-4.8 1.6-9.6 4.8-16 8z" fill="#1afa29" p-id="9291"></path><path d="M568 233.6c35.2 1.6 75.2-9.6 107.2 28.8-33.6 3.2-65.6 1.6-94.4-4.8-12.8-1.6-22.4-8-12.8-24z" fill="#1afa29" p-id="9292"></path><path d="M668.8 360c1.6 1.6 4.8 1.6 6.4 3.2 1.6 3.2 4.8 6.4 6.4 9.6 9.6 17.6 6.4 36.8 0 54.4-4.8 4.8-8 11.2-12.8 16-14.4 6.4-28.8 11.2-43.2 17.6-11.2 6.4-20.8-4.8-32-4.8-4.8-3.2-8-4.8-12.8-8-9.6-11.2-20.8-20.8-25.6-36.8v-19.2c8-14.4 12.8-30.4 30.4-38.4 28.8-8 57.6-12.8 83.2 6.4z" fill="#1afa29" p-id="9293"></path><path d="M593.6 454.4c11.2 1.6 20.8 3.2 32 4.8-3.2 12.8-12.8 1.6-19.2 6.4-4.8-3.2-8-8-12.8-11.2z" fill="#1afa29" p-id="9294"></path><path d="M681.6 427.2v-54.4c8 6.4 9.6 16 12.8 24-4.8 9.6-9.6 20.8-12.8 30.4z" fill="#1afa29" p-id="9295"></path><path d="M819.2 603.2h-6.4c-4.8-3.2-6.4-8-6.4-12.8 4.8-36.8-17.6-64-32-94.4h14.4c38.4 27.2 38.4 65.6 30.4 107.2z" fill="#1afa29" p-id="9296"></path><path d="M774.4 497.6c32 24 43.2 54.4 38.4 92.8-1.6 3.2-1.6 4.8-3.2 8-19.2 48-25.6 49.6-59.2 11.2-22.4-25.6-51.2-38.4-80-51.2-9.6-4.8-27.2-4.8-19.2-24 6.4-4.8 12.8-8 19.2-12.8 33.6-9.6 65.6-28.8 104-24z" fill="#1afa29" p-id="9297"></path><path d="M649.6 534.4c14.4 24 44.8 20.8 65.6 36.8 17.6 14.4 38.4 25.6 49.6 44.8 14.4 24 22.4 19.2 33.6-3.2 3.2-8 9.6-16 14.4-24v12.8c-6.4 12.8-12.8 24-19.2 36.8-11.2-3.2-17.6 12.8-28.8 8l-3.2-1.6c-33.6-40-75.2-67.2-124.8-80-3.2 0-6.4-1.6-8-3.2-9.6-4.8-20.8-1.6-28.8-11.2 14.4-9.6 32-14.4 49.6-16z" fill="#1afa29" p-id="9298"></path><path d="M632 560h6.4c6.4 4.8 17.6 8 11.2 19.2-3.2 6.4-12.8 6.4-19.2 3.2-14.4-3.2-27.2-12.8-41.6-3.2-16 11.2-24 8-25.6-11.2 8-1.6 16-4.8 24-6.4 14.4-6.4 28.8-6.4 44.8-1.6z" fill="#1afa29" p-id="9299"></path><path d="M632 560h-44.8c4.8-1.6 8-4.8 12.8-6.4 9.6 1.6 22.4-4.8 32 6.4z" fill="#1afa29" p-id="9300"></path><path d="M384 627.2c14.4-6.4 25.6 9.6 28.8 22.4 4.8 14.4-4.8 27.2-20.8 33.6-9.6 3.2-17.6 6.4-27.2 8-16 1.6-35.2 3.2-40-17.6-4.8-20.8 6.4-33.6 25.6-40 9.6-4.8 19.2-4.8 33.6-6.4z" fill="#1afa29" p-id="9301"></path><path d="M718.4 689.6c-4.8 12.8-16 4.8-24 8 0-14.4 4.8-16 24-8z" fill="#1afa29" p-id="9302"></path><path d="M680 715.2c-9.6 3.2-20.8 4.8-30.4 8 11.2-11.2 24-16 38.4-19.2-3.2 3.2-4.8 6.4-8 11.2z" fill="#1afa29" p-id="9303"></path><path d="M587.2 577.6c19.2-14.4 38.4-1.6 59.2-1.6-3.2-8-6.4-12.8-9.6-17.6 51.2 14.4 97.6 36.8 124.8 88-32 4.8-41.6-1.6-43.2-35.2-32 17.6-56-6.4-81.6-16-6.4-8-17.6-8-25.6-12.8-4.8-6.4-16-3.2-24-4.8z" fill="#1afa29" p-id="9304"></path><path d="M212.8 664c-1.6-3.2-4.8-8-6.4-11.2-1.6-6.4 0-12.8 4.8-17.6 28.8-30.4 60.8-56 104-67.2 9.6 3.2 6.4 11.2 8 17.6-1.6 9.6-11.2 6.4-14.4 11.2-32 17.6-67.2 32-81.6 68.8-6.4 0-11.2 0-14.4-1.6z" fill="#1afa29" p-id="9305"></path><path d="M393.6 566.4h24c36.8 8 75.2-1.6 112 4.8 1.6 0 4.8 1.6 6.4 1.6-38.4 12.8-76.8 1.6-115.2 6.4-16 1.6-33.6-6.4-48 6.4-11.2 8-24 9.6-35.2 3.2-4.8-17.6 11.2-14.4 19.2-17.6 12.8-4.8 25.6 1.6 36.8-4.8z" fill="#1afa29" p-id="9306"></path><path d="M337.6 584h36.8c-20.8 25.6-41.6 30.4-68.8 12.8l12.8-12.8c6.4-4.8 12.8-4.8 19.2 0zM612.8 584c11.2 0 20.8 1.6 25.6 12.8-9.6-3.2-22.4 0-25.6-12.8z" fill="#1afa29" p-id="9307"></path><path d="M318.4 572.8c-44.8 17.6-83.2 41.6-112 81.6-4.8-1.6-6.4-6.4-6.4-11.2-6.4-8-8-17.6-12.8-25.6-12.8-44.8-4.8-72 24-88 12.8 4.8 11.2 16 12.8 25.6 0-11.2-3.2-22.4 6.4-32 41.6 4.8 78.4 24 118.4 32-1.6 19.2-12.8 22.4-30.4 17.6z" fill="#1afa29" p-id="9308"></path><path d="M187.2 616c8 6.4 11.2 14.4 12.8 25.6l-12.8-12.8v-12.8z" fill="#1afa29" p-id="9309"></path><path d="M668.8 360c-27.2-9.6-54.4-4.8-83.2-6.4 4.8-1.6 9.6-4.8 14.4-6.4 16-3.2 33.6-3.2 49.6 0 3.2 0 6.4 1.6 9.6 1.6 3.2 3.2 6.4 6.4 9.6 11.2z" fill="#1afa29" p-id="9310"></path><path d="M649.6 345.6h-49.6c16-11.2 33.6-3.2 49.6-4.8v4.8z" fill="#1afa29" p-id="9311"></path><path d="M230.4 521.6c1.6 17.6 6.4 35.2-11.2 49.6-4.8-14.4 1.6-32-8-44.8 4.8-4.8 12.8-4.8 19.2-4.8z" fill="#1afa29" p-id="9312"></path><path d="M531.2 571.2c-36.8-1.6-75.2 8-112-4.8 36.8 3.2 75.2-6.4 112 4.8z" fill="#1afa29" p-id="9313"></path><path d="M318.4 572.8c12.8-3.2 24-6.4 30.4-19.2 14.4 6.4 28.8 14.4 44.8 12.8-16 12.8-40 6.4-56 19.2H320c-8-4.8-3.2-9.6-1.6-12.8z" fill="#1afa29" p-id="9314"></path><path d="M412.8 377.6c12.8 14.4 14.4 30.4-3.2 41.6-17.6 11.2-38.4 14.4-54.4-3.2-12.8-12.8-11.2-28.8 4.8-40 17.6-8 35.2-12.8 52.8 1.6z" fill="#1afa29" p-id="9315"></path><path d="M412.8 377.6c-17.6-8-35.2-4.8-52.8-1.6 17.6-14.4 35.2-17.6 52.8 1.6z" fill="#1afa29" p-id="9316"></path><path d="M593.6 422.4c-1.6-1.6-3.2-4.8-4.8-6.4-6.4-9.6-4.8-17.6 0-27.2 33.6-27.2 40-27.2 70.4 1.6 3.2 6.4 3.2 12.8 0 19.2-11.2 16-25.6 25.6-46.4 24-8-1.6-14.4-3.2-19.2-11.2z" fill="#1afa29" p-id="9317"></path><path d="M656 390.4c-20.8-20.8-43.2-16-65.6-1.6-1.6-4.8-1.6-8 3.2-11.2l6.4-6.4c17.6-12.8 33.6-16 49.6 1.6l4.8 4.8c6.4 3.2 4.8 8 1.6 12.8z" fill="#1afa29" p-id="9318"></path><path d="M656 390.4c-1.6-3.2-1.6-8-3.2-11.2 22.4 17.6 20.8 32-3.2 49.6 0-1.6-1.6-1.6-1.6-3.2 1.6-6.4 4.8-11.2 8-16v-19.2z" fill="#1afa29" p-id="9319"></path><path d="M593.6 422.4c6.4 3.2 11.2 4.8 17.6 8 12.8 9.6 25.6-8 38.4-1.6l1.6 1.6c-25.6 17.6-41.6 16-57.6-8zM649.6 374.4c-16-12.8-32-6.4-49.6-1.6 17.6-19.2 33.6-24 49.6 1.6zM593.6 377.6c-1.6 3.2-1.6 8-3.2 11.2-6.4 8-3.2 17.6-3.2 25.6-11.2-12.8-9.6-25.6 6.4-36.8z" fill="#1afa29" p-id="9320"></path><path d="M363.2 678.4c-16 0-32 0-30.4-14.4 1.6-22.4 22.4-27.2 41.6-28.8 16-1.6 33.6 4.8 30.4 22.4-4.8 22.4-30.4 16-41.6 20.8z" fill="#1afa29" p-id="9321"></path><path d="M649.6 427.2c-12.8 3.2-25.6 12.8-38.4 1.6 17.6 0 32-9.6 46.4-19.2-3.2 6.4-6.4 11.2-8 17.6z" fill="#1afa29" p-id="9322"></path></svg>